<?xml version="1.0" encoding="UTF-8" standalone="no"?>
<svg
   xml:space="preserve"
   width="100"
   height="100"
   version="1.1"
   id="svg1"
   sodipodi:docname="socks.svg"
   inkscape:version="1.4.2 (f4327f4, 2025-05-13)"
   xmlns:inkscape="http://www.inkscape.org/namespaces/inkscape"
   xmlns:sodipodi="http://sodipodi.sourceforge.net/DTD/sodipodi-0.dtd"
   xmlns="http://www.w3.org/2000/svg"
   xmlns:svg="http://www.w3.org/2000/svg"><defs
     id="defs1" /><sodipodi:namedview
     id="namedview1"
     pagecolor="#ffffff"
     bordercolor="#000000"
     borderopacity="0.25"
     inkscape:showpageshadow="2"
     inkscape:pageopacity="0.0"
     inkscape:pagecheckerboard="0"
     inkscape:deskcolor="#d1d1d1"
     inkscape:zoom="8.0680884"
     inkscape:cx="46.231521"
     inkscape:cy="36.129996"
     inkscape:window-width="2560"
     inkscape:window-height="1360"
     inkscape:window-x="-9"
     inkscape:window-y="532"
     inkscape:window-maximized="1"
     inkscape:current-layer="svg1"
     showguides="true" /><path
     d="m 28.499276,0 c 6.10552,25.138193 6.453396,20.423813 4.246863,28.409383 -2.919847,15.228571 -0.392207,13.92782 1.551901,22.684075 0.678466,2.403434 1.609571,7.049178 2.23956,11.728337 1.146821,6.77822 -1.699013,7.458089 -0.867671,9.942893 0.576522,3.603967 2.287455,3.32293 4.514523,7.844386 1.409738,1.504344 2.876582,2.576885 6.73334,2.362567 2.734373,-0.470395 4.583955,-2.752192 2.475633,-4.304786 -1.568763,-2.134819 -2.494376,-3.29003 -4.596681,-6.010384 -1.655543,-3.22643 -2.106829,-5.604209 -1.919487,-11.731208 0.302917,-9.228344 0.49335,-17.054306 1.828497,-25.864337 0.847808,-3.618395 0.678845,-3.467705 2.073847,-8.981857 2.810268,-4.71048 1.603786,-11.65418 1.44626,-16.7219517 C 48.113511,5.7427146 47.75318,3.6933849 47.778414,0 h 6.527017 c -0.47844,4.0527598 -1.454206,10.527457 -1.64511,14.462222 -0.991114,14.061606 -2.09163,17.010351 0.484535,21.641593 1.567225,7.523346 4.458921,14.86285 3.891924,31.780582 -0.276509,8.250333 0.206717,9.28865 -3.786553,13.437275 -1.853534,1.925643 -1.729364,1.383705 -5.268278,5.092011 -3.262728,3.287654 -6.012391,1.972487 -5.734306,7.072786 2.242503,2.525734 7.03365,1.323706 9.643989,0.653288 3.266711,-0.793844 2.649574,-0.829595 5.82875,-5.802474 2.95969,-3.370017 8.510854,-4.967933 6.317452,-9.792981 -0.283748,-3.383829 0.06584,-5.727454 0.705136,-11.263899 0.431581,-11.468902 5.010418,-23.544263 1.527696,-36.0215 C 68.609677,16.840625 72.897235,1.2838895 73.262598,0 Z"
     style="fill:#000000;fill-opacity:1;stroke-width:0.242983"
     id="path1"
     sodipodi:nodetypes="ccccccccccccsccccssccccccccc" /></svg>
