<svg xmlns="http://www.w3.org/2000/svg" xml:space="preserve" width="100" height="100"><path d="M28.5 0c6.1 25.1 6.5 20.4 4.2 28.4-2.9 15.2-.3 14 1.6 22.7.7 2.4 1.6 7 2.2 11.7 1.2 6.8-1.7 7.5-.8 10 .5 3.6 2.3 3.3 4.5 7.8 1.4 1.5 2.9 2.6 6.7 2.4 2.8-.5 4.6-2.8 2.5-4.3l-4.6-6c-1.7-3.3-2.1-5.6-2-11.8.4-9.2.6-17 2-25.8.8-3.7.6-3.5 2-9 2.8-4.7 1.6-11.7 1.4-16.7 0-3.7-.4-5.7-.4-9.4h6.5c-.5 4-1.4 10.5-1.6 14.5-1 14-2.1 17 .4 21.6 1.6 7.5 4.5 14.9 4 31.8-.3 8.2.1 9.3-3.8 13.4-1.9 2-1.8 1.4-5.3 5.1-3.3 3.3-6 2-5.8 7 2.3 2.6 7 1.4 9.7.7 3.3-.8 2.6-.8 5.8-5.8 3-3.3 8.5-5 6.3-9.8-.2-3.3.1-5.7.7-11.2.5-11.5 5-23.6 1.6-36 2.3-14.5 6.6-30 7-31.3Z" style="fill:#000;fill-opacity:1;stroke-width:.242983"/></svg>