<?xml version="1.0" encoding="UTF-8" standalone="no"?>
<svg
   xml:space="preserve"
   width="100"
   height="100"
   version="1.1"
   id="svg1"
   sodipodi:docname="socks.svg"
   inkscape:version="1.4.2 (f4327f4, 2025-05-13)"
   xmlns:inkscape="http://www.inkscape.org/namespaces/inkscape"
   xmlns:sodipodi="http://sodipodi.sourceforge.net/DTD/sodipodi-0.dtd"
   xmlns="http://www.w3.org/2000/svg"
   xmlns:svg="http://www.w3.org/2000/svg"><defs
     id="defs1" /><sodipodi:namedview
     id="namedview1"
     pagecolor="#ffffff"
     bordercolor="#000000"
     borderopacity="0.25"
     inkscape:showpageshadow="2"
     inkscape:pageopacity="0.0"
     inkscape:pagecheckerboard="0"
     inkscape:deskcolor="#d1d1d1"
     inkscape:zoom="8.0680884"
     inkscape:cx="31.482055"
     inkscape:cy="61.786631"
     inkscape:window-width="2560"
     inkscape:window-height="1360"
     inkscape:window-x="-9"
     inkscape:window-y="532"
     inkscape:window-maximized="1"
     inkscape:current-layer="svg1"
     showguides="true" /><path
     d="m 28.445422,0 c 6.783651,24.408781 6.952157,20.822562 5.048993,28.709628 -2.368641,14.999341 0.06359,13.644974 2.247782,22.153023 0.741291,2.330653 1.801905,6.847933 2.568864,11.407593 1.340265,6.597589 -0.679686,6.982634 0.213853,9.388019 0.680082,3.508994 1.602021,3.550784 3.927113,7.904776 1.428166,1.427139 2.898353,2.429803 6.666413,2.096119 2.661256,-0.548268 4.398294,-2.841085 2.284812,-4.293006 -1.604073,-2.039134 -2.547166,-3.140101 -4.692275,-5.735205 -1.724085,-3.104799 -2.242192,-5.41764 -2.255674,-11.420687 0,-9.042316 -0.06504,-16.708387 0.958734,-25.374429 0.71357,-3.568877 1.296703,-6.142747 2.484953,-11.584747 C 48.143349,20.533358 47.825642,17.197998 47.413928,9.9360131 46.937528,5.6525404 46.64594,4.0068231 46.048513,0 h 7.013463 c 0.281641,3.1145452 -0.09164,10.313196 -0.152077,14.170627 -0.518314,14.910669 -0.385241,17.460385 0.797729,20.795112 1.651746,14.502218 1.762175,20.631542 1.735698,32.979085 0.01944,7.466533 1.985654,11.131746 -5.788459,18.40994 -3.08789,3.322739 -5.821479,2.123812 -5.385429,7.106985 2.276081,2.400109 6.926975,1.069648 9.460402,0.329585 3.17191,-0.881958 3.310387,-2.384464 6.262353,-7.353996 2.912578,-2.897839 5.852525,-3.837597 3.30274,-8.489821 C 62.660597,75.26431 61.992812,70.217744 62.688558,65.397928 64.830293,52.785709 68.695599,43.54554 66.399344,30.421616 68.225504,16.234042 72.771083,-3.5688761 72.294685,0 Z"
     style="fill:#000000;fill-opacity:1;stroke-width:0.237957"
     id="path1"
     sodipodi:nodetypes="ccccccccccccccccccccccccccc" /></svg>
