<svg xmlns="http://www.w3.org/2000/svg" xml:space="preserve" width="100" height="100"><path d="M28.4 0c6.8 24.4 7 20.8 5 28.7-2.3 15 .2 13.7 2.3 22.2.8 2.3 1.8 6.8 2.6 11.4 1.4 6.6-.7 7 .2 9.4.7 3.5 1.6 3.5 4 7.9 1.4 1.4 2.9 2.4 6.6 2 2.7-.5 4.4-2.8 2.3-4.2l-4.7-5.8c-1.7-3-2.2-5.4-2.2-11.4 0-9-.1-16.7 1-25.4.6-3.5 1.2-6.1 2.4-11.5.2-2.8 0-6.1-.5-13.4L46 0h7c.3 3.1 0 10.3 0 14.2-.6 14.9-.5 17.4.7 20.8 1.7 14.5 1.8 20.6 1.7 33 0 7.4 2 11-5.7 18.4-3.1 3.3-5.9 2-5.4 7 2.2 2.5 6.9 1.1 9.4.4 3.2-.9 3.3-2.4 6.3-7.4 2.9-2.9 5.8-3.8 3.3-8.5-.6-2.6-1.3-7.7-.6-12.5 2.1-12.6 6-21.9 3.7-35 1.8-14.2 6.4-34 5.9-30.4Z" style="fill:#000;fill-opacity:1;stroke-width:.237957"/></svg>